<?xml version="1.0" standalone="no"?>
<svg
  width="600"
  height="600"
  viewBox="0 0 600 600"
  xmlns="http://www.w3.org/2000/svg"
>
  <g transform="translate(300,300)">
    <path d="M70.4,-128.4C83.1,-101.4,79.8,-68.1,94.4,-41.5C109,-14.9,141.6,5.1,160.5,38.3C179.4,71.5,184.5,117.9,159.1,125.9C133.6,133.9,77.5,103.4,36.4,108.3C-4.7,113.2,-30.8,153.5,-71.4,173.5C-112,193.4,-167.1,193,-187.5,164.9C-207.8,136.9,-193.5,81.3,-185.6,36C-177.7,-9.4,-176.2,-44.6,-171.3,-87.7C-166.4,-130.8,-158.1,-181.9,-128.9,-201.5C-99.8,-221,-49.9,-209,-10.5,-192.6C28.8,-176.2,57.7,-155.4,70.4,-128.4Z" fill="#0693e3" />
  </g>
</svg>
    