<?xml version="1.0" standalone="no"?>
<svg
  width="600"
  height="600"
  viewBox="0 0 600 600"
  xmlns="http://www.w3.org/2000/svg"
>
  <g transform="translate(300,300)">
    <path d="M97.7,-124.4C118.9,-119,123.2,-80.2,142.4,-41.4C161.7,-2.7,195.9,36.1,186,58.6C176.2,81.1,122.2,87.5,83.8,88C45.5,88.6,22.7,83.3,-9.9,96.9C-42.5,110.5,-85,143,-103.9,136.2C-122.8,129.3,-118,83,-141.2,39.3C-164.5,-4.4,-215.9,-45.6,-208.5,-67.5C-201.1,-89.4,-134.9,-92,-90.4,-89.9C-45.8,-87.8,-22.9,-80.9,7.6,-91.4C38.2,-101.9,76.4,-129.8,97.7,-124.4Z" fill="#8ed1fc" />
  </g>
</svg>
    